<?xml version="1.0" encoding="utf-8"?>
<svg xmlns="http://www.w3.org/2000/svg" viewBox="0 0 500 500">
  <g id="SVGRepo_bgCarrier" stroke-width="0" transform="matrix(1, 0, 0, 1, 156.198761, 127.937881)"/>
  <g id="SVGRepo_tracerCarrier" stroke-linecap="round" stroke-linejoin="round" transform="matrix(1, 0, 0, 1, 156.198761, 127.937881)"/>
  <g id="SVGRepo_iconCarrier" transform="matrix(1, 0, 0, 1, 156.198761, 127.937881)">
    <path d="M209.1,33h-32.267V2.383L209.1,33z M190.167,180c23.159,0,42,18.841,42,42s-18.841,42-42,42c-23.159,0-42-18.841-42-42 S167.007,180,190.167,180z M189.333,198c-4.143,0-7.5,3.357-7.5,7.5v9.5h-8.167c-4.143,0-7.5,3.357-7.5,7.5s3.357,7.5,7.5,7.5h8.167 v8.5c0,4.143,3.357,7.5,7.5,7.5c4.143,0,7.5-3.357,7.5-7.5V230h9.833c4.143,0,7.5-3.357,7.5-7.5s-3.357-7.5-7.5-7.5h-9.833v-9.5 C196.833,201.357,193.476,198,189.333,198z M138.801,246.701l-99.324-0.451c-4.134-0.013-7.644-3.617-7.644-7.75V7.5 c0-4.143,3.69-7.5,7.833-7.5h122.167v40.5c0,4.143,3.69,7.5,7.833,7.5h42.167v121.421c-6-2.845-14.039-4.421-21.834-4.421 c-31.43,0-56.917,25.57-56.917,57C133.083,230.844,135.191,239.224,138.801,246.701z M63.666,76.5c0,4.143,3.357,7.5,7.5,7.5h99 c4.143,0,7.5-3.357,7.5-7.5s-3.357-7.5-7.5-7.5h-99C67.024,69,63.666,72.357,63.666,76.5z M63.666,107.5c0,4.143,3.357,7.5,7.5,7.5 h99c4.143,0,7.5-3.357,7.5-7.5s-3.357-7.5-7.5-7.5h-99C67.024,100,63.666,103.357,63.666,107.5z M71.166,148h99 c4.143,0,7.5-3.357,7.5-7.5s-3.357-7.5-7.5-7.5h-99c-4.143,0-7.5,3.357-7.5,7.5S67.024,148,71.166,148z" style="stroke: rgb(116, 116, 116); fill: rgb(225, 225, 225); stroke-width: 0px;"/>
    <g id="g-1" stroke-width="0" transform="matrix(1, 0, 0, 1, 172.992722, 164.261581)"/>
    <g id="g-2" stroke-linecap="round" stroke-linejoin="round" transform="matrix(1, 0, 0, 1, 172.992722, 164.261581)"/>
    <g id="g-3" transform="matrix(3.580681, 0, 0, 3.583333, -51.484951, 95.331795)" style=""/>
    <ellipse style="stroke-width: 0px; stroke: rgb(255, 255, 255); fill: rgb(255, 255, 255);" cx="190.486" cy="222.076" rx="45" ry="45"/>
    <path class="cls-2" d="M 190.19 179.327 C 223.268 179.327 243.939 215.16 227.4 243.827 C 210.865 272.494 169.519 272.494 152.979 243.827 C 149.209 237.287 147.222 229.873 147.222 222.327 C 147.222 198.577 166.461 179.327 190.19 179.327 Z M 169.171 229.494 L 183.494 229.494 L 183.494 243.827 C 183.494 249.342 189.463 252.789 194.236 250.033 C 196.452 248.75 197.817 246.385 197.817 243.827 L 197.817 229.494 L 212.139 229.494 C 217.654 229.494 221.098 223.52 218.341 218.744 C 217.063 216.525 214.7 215.16 212.139 215.16 L 197.817 215.16 L 197.817 200.827 C 197.817 195.309 191.848 191.861 187.075 194.621 C 184.858 195.9 183.494 198.265 183.494 200.827 L 183.494 215.16 L 169.171 215.16 C 163.657 215.16 160.212 221.13 162.969 225.91 C 164.248 228.125 166.615 229.494 169.171 229.494 Z" data-name="add copy" id="add_copy" style="fill-rule: evenodd; fill: rgb(105, 159, 76);"/>
  </g>
</svg>