<?xml version="1.0" encoding="utf-8"?>
<svg xmlns="http://www.w3.org/2000/svg" viewBox="0 0 500 500">
  <g id="SVGRepo_bgCarrier" stroke-width="0" transform="matrix(1, 0, 0, 1, 156.198761, 127.937881)"/>
  <g id="SVGRepo_tracerCarrier" stroke-linecap="round" stroke-linejoin="round" transform="matrix(1, 0, 0, 1, 156.198761, 127.937881)"/>
  <g id="SVGRepo_iconCarrier" transform="matrix(1.880462, 0, 0, 1.831229, 10.339432, 5.837066)" style="">
    <path d="M 208.192 31.135 L 175.925 31.135 L 175.925 0.518 L 208.192 31.135 Z M 189.259 178.135 C 212.418 178.135 231.259 196.976 231.259 220.135 C 231.259 243.294 212.418 262.135 189.259 262.135 C 166.1 262.135 147.259 243.294 147.259 220.135 C 147.259 196.976 166.099 178.135 189.259 178.135 Z M 188.425 196.135 C 184.282 196.135 180.925 199.492 180.925 203.635 L 180.925 213.135 L 172.758 213.135 C 168.615 213.135 165.258 216.492 165.258 220.635 C 165.258 224.778 168.615 228.135 172.758 228.135 L 180.925 228.135 L 180.925 236.635 C 180.925 240.778 184.282 244.135 188.425 244.135 C 192.568 244.135 195.925 240.778 195.925 236.635 L 195.925 228.135 L 205.758 228.135 C 209.901 228.135 213.258 224.778 213.258 220.635 C 213.258 216.492 209.901 213.135 205.758 213.135 L 195.925 213.135 L 195.925 203.635 C 195.925 199.492 192.568 196.135 188.425 196.135 Z M 137.893 244.836 L 38.569 244.385 C 34.435 244.372 30.925 240.768 30.925 236.635 L 30.925 5.635 C 30.925 1.492 34.615 -1.865 38.758 -1.865 L 160.925 -1.865 L 160.925 38.635 C 160.925 42.778 164.615 46.135 168.758 46.135 L 210.925 46.135 L 210.925 167.556 C 204.925 164.711 196.886 163.135 189.091 163.135 C 157.661 163.135 132.174 188.705 132.174 220.135 C 132.175 228.979 134.283 237.359 137.893 244.836 Z M 62.758 74.635 C 62.758 78.778 66.115 82.135 70.258 82.135 L 169.258 82.135 C 173.401 82.135 176.758 78.778 176.758 74.635 C 176.758 70.492 173.401 67.135 169.258 67.135 L 70.258 67.135 C 66.116 67.135 62.758 70.492 62.758 74.635 Z M 62.758 105.635 C 62.758 109.778 66.115 113.135 70.258 113.135 L 169.258 113.135 C 173.401 113.135 176.758 109.778 176.758 105.635 C 176.758 101.492 173.401 98.135 169.258 98.135 L 70.258 98.135 C 66.116 98.135 62.758 101.492 62.758 105.635 Z M 70.258 146.135 L 169.258 146.135 C 173.401 146.135 176.758 142.778 176.758 138.635 C 176.758 134.492 173.401 131.135 169.258 131.135 L 70.258 131.135 C 66.115 131.135 62.758 134.492 62.758 138.635 C 62.758 142.778 66.116 146.135 70.258 146.135 Z" style="stroke-width: 0px; stroke: rgb(163, 163, 163); fill: rgb(186, 186, 186);"/>
    <g id="g-1" stroke-width="0" transform="matrix(1, 0, 0, 1, 172.992722, 164.261581)"/>
    <g id="g-2" stroke-linecap="round" stroke-linejoin="round" transform="matrix(1, 0, 0, 1, 172.992722, 164.261581)"/>
    <g id="g-3" transform="matrix(3.580681, 0, 0, 3.583333, -51.484951, 95.331795)" style=""/>
    <ellipse style="stroke-width: 0px; stroke: rgb(255, 255, 255); fill: rgb(255, 255, 255);" cx="190.486" cy="222.076" rx="45" ry="45"/>
    <path class="cls-2" d="M 188.264 170.962 C 225.083 170.962 248.087 211.918 229.68 244.682 C 211.276 277.448 165.256 277.448 146.847 244.682 C 142.651 237.208 140.438 228.734 140.438 220.11 C 140.438 192.964 161.851 170.962 188.264 170.962 Z M 164.867 228.301 L 180.809 228.301 L 180.809 244.682 C 180.809 250.986 187.454 254.925 192.767 251.775 C 195.233 250.31 196.753 247.605 196.753 244.682 L 196.753 228.301 L 212.693 228.301 C 218.832 228.301 222.665 221.472 219.598 216.012 C 218.173 213.477 215.544 211.918 212.693 211.918 L 196.753 211.918 L 196.753 195.535 C 196.753 189.228 190.109 185.289 184.796 188.442 C 182.328 189.903 180.809 192.607 180.809 195.535 L 180.809 211.918 L 164.867 211.918 C 158.73 211.918 154.896 218.741 157.965 224.204 C 159.388 226.735 162.023 228.301 164.867 228.301 Z" data-name="add copy" id="add_copy" style="fill-rule: evenodd; fill: rgb(105, 159, 76);"/>
  </g>
</svg>